<svg xmlns="http://www.w3.org/2000/svg" viewBox="0 0 167.75 168.79">
  <defs>
    <style>
      .cls-1 {
        fill: #1d1d1b;
        fill-rule: evenodd;
      }

      .cls-2 {
        fill: #79113e;
      }

      .cls-3 {
        fill: #fff;
      }
    </style>
  </defs>
  <g id="Layer_2" data-name="Layer 2">
    <g id="Layer_1-2" data-name="Layer 1">
      <g>
        <g>
          <path class="cls-1" d="M10,128.44l1-.49.88-.43.69-.37.15,0,.29.49,0,.13a4.36,4.36,0,0,0-1.19.93c-.09.23.31,1.05,1.19,2.46.14.23.38.57.71,1,.6-.29,1.63-.89,3.08-1.8l1.12-.7-.56-.95c-.16-.28-.5-.8-1-1.54-.1-.14-.2-.22-.3-.22a3.41,3.41,0,0,0-1.19.53l-.13,0-.33-.51,0-.13c.63-.37,1.2-.71,1.71-1s1.16-.74,1.81-1.18l.12,0,.35.55,0,.14a4.28,4.28,0,0,0-1,.71c-.14.21-.07.57.18,1.07.18.34.36.67.56,1s.45.71.66,1l2-1.23a21.55,21.55,0,0,0,2.49-1.7.42.42,0,0,0,.13-.48s-.23-.46-.65-1.23l0-.13.55-.35.14,0,2,3.35c.29.48.71,1.12,1.28,1.94l0,.13-.57.35-.13,0a8.71,8.71,0,0,0-.69-.91.42.42,0,0,0-.48-.1,21.92,21.92,0,0,0-2.63,1.5L17.88,133a21.61,21.61,0,0,0-2.5,1.71.43.43,0,0,0-.13.47c0,.1.21.43.52,1l0,.13-.56.36-.13,0c-.29-.56-.81-1.41-1.54-2.58q-.7-1.12-3.53-5.54Z"/>
          <path class="cls-1" d="M16.66,109.14l.12,0c.17.63.48,1.58.92,2.86s.79,2.23,1,2.83l-.07.11-.62.21-.12-.06c-.25-.61-.41-1-.46-1a.42.42,0,0,0-.45-.2,21.7,21.7,0,0,0-2.9.86l-4.88,1.68a22.56,22.56,0,0,0-2.81,1.11.42.42,0,0,0-.24.43c0,.1.11.47.28,1.11l-.06.12-.62.22-.12-.07c-.17-.6-.47-1.55-.92-2.86s-.79-2.23-1-2.8l0-.12.63-.22.12.06a9.85,9.85,0,0,0,.47,1,.4.4,0,0,0,.45.19,22.18,22.18,0,0,0,2.89-.86l4.88-1.68A19.67,19.67,0,0,0,16,111a.42.42,0,0,0,.24-.43c0-.1-.1-.47-.28-1.11l.06-.12Z"/>
          <path class="cls-1" d="M13,89.52l.11.08c0,.05,0,.17,0,.37.07.89.12,1.44.15,1.66s.12.84.25,1.56a3.08,3.08,0,0,0-.73.46l-3.71,2.9-1.5,1.27a2.63,2.63,0,0,0-.52.64l-.35-.06q0-.23,0-.33a3.25,3.25,0,0,0-.48-1.46,2.6,2.6,0,0,0-1.06-.79,3,3,0,0,0-1.66-.21,2.19,2.19,0,0,0-2.06,1.48,4.25,4.25,0,0,0-.07,1.73,5.36,5.36,0,0,0,.2.92c.64,0,1.72-.11,3.24-.3l5.06-.62a20.34,20.34,0,0,0,3-.5.42.42,0,0,0,.32-.37,9.3,9.3,0,0,0,0-1.14l.08-.11.65-.08.11.07c0,.65.14,1.65.31,3s.31,2.38.42,3l-.07.11-.66.08-.11-.08c-.12-.66-.2-1-.23-1.13a.45.45,0,0,0-.4-.28,23.38,23.38,0,0,0-3,.25l-5.12.62a21.88,21.88,0,0,0-3,.5.42.42,0,0,0-.32.37,10.59,10.59,0,0,0,.05,1.14l-.09.11-.66.08-.1-.09c0-.63-.14-1.62-.31-3-.09-.78-.18-1.42-.26-1.91Q.19,98,.1,97.25a7.77,7.77,0,0,1,0-2.49,2.33,2.33,0,0,1,1.2-1.58,3.39,3.39,0,0,1,1.1-.31c1.76-.21,3.12.62,4.1,2.5.5-.38,1-.8,1.52-1.22l2.11-1.78a10.6,10.6,0,0,0,2.1-2,1.08,1.08,0,0,0,.06-.64l.09-.11Z"/>
          <path class="cls-1" d="M15.52,68.77l.08.1c-.26,1.42-.41,2.27-.46,2.57-.19,1.18-.34,2.28-.47,3.3l-.1.07L14,74.72l-.09-.12.08-.85c0-.35-.06-.54-.29-.58a3.52,3.52,0,0,0-.95.13l-2.15.45c-.16.89-.31,1.79-.45,2.72-.08.49-.19,1.24-.34,2.23l1.11.62a8.1,8.1,0,0,0,1.6.74c.24,0,.41-.09.5-.39s.13-.48.24-1l.1-.08.62.09.08.11c-.22,1.19-.36,2-.41,2.29s-.13.92-.26,2l-.1.08-.62-.1-.08-.12c.06-.66,0-1.09-.21-1.27s-1.45-1-3.74-2.35l-5.89-3.5L.64,74.62l.22-1.37,12.81-3.19a1.49,1.49,0,0,0,.86-.43,3.08,3.08,0,0,0,.26-.89l.11-.07ZM9.38,74.05,4,75.31l4.74,2.77c.1-.52.22-1.2.35-2s.22-1.48.29-2"/>
          <path class="cls-1" d="M11,45.38a10.17,10.17,0,0,0,1.29.76l1.45.74,0,.12-.26.56-.13.06a11.44,11.44,0,0,0-1.36-.55.68.68,0,0,0-.69.36c-.07.11-.35.65-.83,1.64L10,50.23c.2.12,1,.52,2.43,1.21l5,2.43a22.05,22.05,0,0,0,2.78,1.21.43.43,0,0,0,.47-.14,10.32,10.32,0,0,0,.58-1l.13-.05.59.3,0,.12c-.32.56-.78,1.45-1.37,2.68s-1,2.15-1.27,2.72l-.11,0-.6-.3,0-.12c.25-.61.39-1,.41-1.07a.43.43,0,0,0-.18-.45,20.93,20.93,0,0,0-2.66-1.45l-5-2.42c-1.44-.71-2.26-1.1-2.45-1.16l-.61,1.25a10.5,10.5,0,0,0-.8,1.88.45.45,0,0,0,0,.25,2.26,2.26,0,0,0,.5.41c.29.19.6.37.92.55l0,.12-.27.56-.13,0L6.9,57.16a9.87,9.87,0,0,0-1.36-.53l0-.13c.23-.31.87-1.55,1.93-3.72l1.73-3.55c1-2,1.56-3.27,1.75-3.81Z"/>
          <path class="cls-1" d="M36.56,19.06l0,.13c-.59.49-.8.93-.62,1.3a10.85,10.85,0,0,0,.84,1.23c.34.45.85,1.09,1.52,1.92L40.17,26c1.21,1.5,1.79,2.81,1.71,3.93a5.53,5.53,0,0,1-2.31,4,7.82,7.82,0,0,1-3.63,1.85,3.36,3.36,0,0,1-2.52-.6,23.4,23.4,0,0,1-3-3.29l-1.58-1.95a21.73,21.73,0,0,0-2-2.27.41.41,0,0,0-.48-.07,8.53,8.53,0,0,0-.95.64H25.3l-.41-.51,0-.14c.51-.36,1.29-1,2.37-1.84s1.85-1.53,2.28-1.93h.14l.41.51v.14a8.32,8.32,0,0,0-.83.8.42.42,0,0,0,0,.48A21.77,21.77,0,0,0,31,28.13l1.27,1.56a17,17,0,0,0,3.1,3.3Q37,33.85,39,32.2a3.82,3.82,0,0,0,1.54-2.32,2.29,2.29,0,0,0,0-1,4.33,4.33,0,0,0-.59-1.16A13.09,13.09,0,0,0,39,26.39l-1.28-1.58c-1.07-1.32-1.81-2.22-2.21-2.7a4.27,4.27,0,0,0-.81-.8.53.53,0,0,0-.45,0,4.77,4.77,0,0,0-1,.64H33l-.41-.51,0-.14c.46-.32.92-.67,1.39-1.05s1-.84,2-1.67h.14Zm-5.05-.78A1.42,1.42,0,1,1,29,19a1.3,1.3,0,0,1,.5-1,1.45,1.45,0,0,1,2,.22M28.18,21A1.4,1.4,0,0,1,28.49,22,1.34,1.34,0,0,1,28,23a1.31,1.31,0,0,1-1,.32,1.41,1.41,0,0,1-1-.53,1.43,1.43,0,0,1-.32-1.06,1.39,1.39,0,0,1,.51-.95,1.34,1.34,0,0,1,1-.29,1.37,1.37,0,0,1,1,.52"/>
          <path class="cls-1" d="M60,7.88,59.89,8a9.4,9.4,0,0,0-1,.52.43.43,0,0,0-.18.45,22.65,22.65,0,0,0,1,2.86l1.48,3.66c1.1,2.71,1.85,4.45,2.26,5.24l-.09.13-1.64.38q-3.53-1.74-12.28-6.58l2.39,5.91a21.81,21.81,0,0,0,1.24,2.76.42.42,0,0,0,.45.2,7.85,7.85,0,0,0,1.09-.33l.13.06.25.61-.06.12c-.71.24-1.36.49-2,.72s-1.38.58-2.06.9l-.13-.05L50.54,25l.05-.13a10.46,10.46,0,0,0,1-.51.45.45,0,0,0,.18-.46,22.15,22.15,0,0,0-1-2.85l-1.93-4.78a22.9,22.9,0,0,0-1.25-2.76.43.43,0,0,0-.44-.21c-.1,0-.47.13-1.1.34l-.13,0-.24-.62,0-.12c.59-.19,1.14-.39,1.66-.61.82-.32,1.48-.61,2-.87q5,3,11.4,6.22l-2.14-5.29A20,20,0,0,0,57.41,9.5.42.42,0,0,0,57,9.29c-.1,0-.47.13-1.09.34l-.13-.05L55.5,9l.06-.11c.69-.24,1.34-.48,1.94-.73.78-.32,1.47-.62,2.08-.9l.12,0Z"/>
          <path class="cls-1" d="M77.79,17.94l-.07.11c-.65,0-1.65.14-3,.31s-2.33.31-3,.43l-.1-.09-.08-.65.09-.11c.65-.12,1-.2,1.12-.23a.43.43,0,0,0,.28-.41,21,21,0,0,0-.24-3l-.63-5.11a22.4,22.4,0,0,0-.49-3,.44.44,0,0,0-.37-.32c-.1,0-.48,0-1.15,0l-.11-.08L70,5.17l.09-.1c.62,0,1.62-.14,3-.3s2.35-.32,3-.43l.11.08.08.65-.09.11A10.27,10.27,0,0,0,75,5.42a.46.46,0,0,0-.29.4,23.27,23.27,0,0,0,.25,3L75.6,14a22.14,22.14,0,0,0,.49,3,.43.43,0,0,0,.38.32,9.33,9.33,0,0,0,1.14,0l.1.09Z"/>
          <path class="cls-1" d="M100.67,6.37l-.11.09a3.64,3.64,0,0,0-.89,0,1.14,1.14,0,0,0-.45.39,18.55,18.55,0,0,0-1,1.72l-.89,1.55-1.68,3c-1.45,2.56-2.44,4.38-3,5.44l-1.47-.18L88.05,7.11a7.61,7.61,0,0,0-.75-2.05,2.05,2.05,0,0,0-1.15-.37l-.09-.12.08-.64.12-.09c.67.12,1.53.24,2.56.37,1.29.16,2.47.28,3.52.37l.09.12-.08.65-.1.09a3.26,3.26,0,0,0-1.3,0,.38.38,0,0,0-.21.31,10.83,10.83,0,0,0,.4,1.92l.31,1.21,1.71,6.34L96,10.11c.11-.2.37-.69.78-1.49a12.3,12.3,0,0,0,.91-2c0-.21,0-.35-.17-.41a8,8,0,0,0-1.28-.27l-.08-.1.08-.67.11-.08c.73.13,1.49.24,2.27.34.56.07,1.25.14,2.07.2l.09.11Z"/>
          <path class="cls-1" d="M116.44,22a23.86,23.86,0,0,0-1.41,2.9l-.12.06-6.54-2.71c-1.1-.45-1.89-.74-2.35-.88l0-.13.1-.25.09-.1a3.05,3.05,0,0,0,.94-.24,5.47,5.47,0,0,0,.58-1.16l.85-2,1.85-4.58a24.48,24.48,0,0,0,1-2.85.42.42,0,0,0-.18-.46,9.66,9.66,0,0,0-1-.52L110.14,9l.25-.61.12,0c.6.29,1.53.69,2.8,1.2s3.3,1.31,6.49,2.55l.06.12-.51,1c-.17.31-.31.57-.42.79l-.4.81-.13.06-.52-.21-.06-.13a4.07,4.07,0,0,0,.43-1.46c0-.11-.33-.3-.9-.59s-1.06-.51-1.5-.69-1.06-.4-1.62-.58c-.32.61-.71,1.47-1.16,2.59l-.75,1.87c.46.22.84.4,1.14.51l1.18.48q.84.32,1,.24c.15-.07.37-.46.69-1.14l.13-.06.56.23,0,.13c-.3.66-.56,1.27-.79,1.84s-.5,1.27-.77,2l-.12.05-.6-.24-.06-.13a3,3,0,0,0,.35-1.29c0-.17-.3-.37-.77-.62s-.74-.35-1.15-.51-.86-.33-1.25-.46l-1.11,2.76c-.32.79-.62,1.56-.89,2.31l1.23.5a15.19,15.19,0,0,0,3.32,1.1.28.28,0,0,0,.19,0,2,2,0,0,0,.39-.47l.67-1,.13-.06.55.22Z"/>
          <path class="cls-1" d="M131.89,36.39l-.13,0a2.31,2.31,0,0,1-.29-.23l-1.3-1c-.27-.2-.71-.5-1.3-.91a2.67,2.67,0,0,0,.17-.84l.5-4.68.12-2a2.45,2.45,0,0,0-.09-.82l.28-.2.26.21a3.18,3.18,0,0,0,1.38.66,2.62,2.62,0,0,0,1.31-.22,3,3,0,0,0,1.31-1,2.23,2.23,0,0,0,.36-2.52,5.5,5.5,0,0,0-2-1.74c-.43.46-1.11,1.31-2,2.54l-3.07,4.07a23,23,0,0,0-1.72,2.49.42.42,0,0,0,0,.49c.07.08.35.33.86.76v.14l-.4.52-.12,0c-.5-.43-1.28-1-2.36-1.86s-1.93-1.43-2.44-1.76l0-.13.41-.53.14,0a7.85,7.85,0,0,0,1,.61.45.45,0,0,0,.48-.08A24.76,24.76,0,0,0,125.14,26l3.1-4.12A24,24,0,0,0,130,19.4a.42.42,0,0,0-.05-.49,10.6,10.6,0,0,0-.86-.76V18l.39-.52.14,0c.49.41,1.27,1,2.36,1.85.64.48,1.15.86,1.56,1.14.81.56,1.4,1,1.79,1.28a7.67,7.67,0,0,1,1.8,1.73,2.31,2.31,0,0,1,.3,2,3.33,3.33,0,0,1-.54,1q-1.59,2.13-4.65,1.21c-.06.63-.12,1.28-.17,2l-.19,2.74a10.91,10.91,0,0,0,0,2.93,1.13,1.13,0,0,0,.41.49v.14Z"/>
          <path class="cls-1" d="M146.13,47a4.6,4.6,0,0,1-2.81,1,4.85,4.85,0,0,1-2.55-.7,7.57,7.57,0,0,1-2.09-2A9.07,9.07,0,0,1,137,41.49l.1-.23a14.37,14.37,0,0,0,2.71-1.7l.14,0,.37.5,0,.13-.18.13a12.15,12.15,0,0,0-1.08,1,2.86,2.86,0,0,0-.1,1.65,4.39,4.39,0,0,0,.81,1.86,2.79,2.79,0,0,0,2.68,1.32,3,3,0,0,0,1.38-.56,1.84,1.84,0,0,0,.79-1.9,5.76,5.76,0,0,0-.65-1.6,8.83,8.83,0,0,1-1.26-3.34,3.3,3.3,0,0,1,1.53-2.7,4.06,4.06,0,0,1,3.35-.84A5.89,5.89,0,0,1,151,37.6,8.07,8.07,0,0,1,152.58,41l-.15.2A16.23,16.23,0,0,0,150,42.63l-.14,0-.38-.49,0-.13a11.07,11.07,0,0,0,1.16-1,2.29,2.29,0,0,0,0-1.3,4,4,0,0,0-.74-1.53,2.94,2.94,0,0,0-1.79-1.24,2.2,2.2,0,0,0-1.78.45,1.82,1.82,0,0,0-.83,1.64,8,8,0,0,0,1,2.37l.53,1a5,5,0,0,1,.41,1,3,3,0,0,1,0,1.86A3.71,3.71,0,0,1,146.13,47"/>
          <path class="cls-1" d="M148.7,61.4l-.12,0q-.36-.9-1.23-2.76c-.57-1.22-1-2.12-1.32-2.69l.05-.12.59-.28.14.05a8.1,8.1,0,0,0,.57,1,.41.41,0,0,0,.46.15,22,22,0,0,0,2.79-1.16l4.68-2.18A21.68,21.68,0,0,0,158,52a.41.41,0,0,0,.19-.45,10.23,10.23,0,0,0-.4-1.07l.05-.13.6-.28.12,0c.23.58.64,1.5,1.22,2.75s1,2.13,1.31,2.69l0,.12-.6.28-.13-.05q-.48-.87-.57-1a.43.43,0,0,0-.47-.15,22,22,0,0,0-2.79,1.16l-4.68,2.18a21.68,21.68,0,0,0-2.68,1.4.42.42,0,0,0-.19.45,10.23,10.23,0,0,0,.4,1.07l-.05.13Z"/>
          <path class="cls-1" d="M167,76.9a9.47,9.47,0,0,0-1.49.18l-1.6.32-.12-.07-.12-.6.06-.13a12.31,12.31,0,0,0,1.41-.4.67.67,0,0,0,.32-.71c0-.13-.12-.73-.35-1.8l-.28-1.28-2.65.55-5.42,1.15a21.58,21.58,0,0,0-2.92.75.43.43,0,0,0-.29.4c0,.1,0,.48.14,1.14l-.07.11-.64.14-.12-.08c-.09-.64-.28-1.62-.57-2.95s-.51-2.33-.67-2.92l.06-.11.65-.14.12.08c.17.64.29,1,.32,1.1a.45.45,0,0,0,.43.25,24.52,24.52,0,0,0,3-.5l5.42-1.16c1.57-.34,2.45-.53,2.64-.59l-.29-1.36a8.93,8.93,0,0,0-.53-2,.33.33,0,0,0-.19-.18,1.9,1.9,0,0,0-.63,0,9.94,9.94,0,0,0-1.06.14l-.12-.08-.13-.6.08-.13,1.62-.36a9.67,9.67,0,0,0,1.4-.42l.11.07c0,.39.28,1.76.78,4.12l.82,3.86c.46,2.18.79,3.54,1,4.08Z"/>
          <path class="cls-1" d="M156.54,97.24a22.59,22.59,0,0,0-3.2-.43l-.09-.11.55-7.06c.09-1.18.13-2,.12-2.51l.11-.08h.27l.11.06a3.76,3.76,0,0,0,.52.82,5.51,5.51,0,0,0,1.29.19l2.18.19,4.93.34a22.1,22.1,0,0,0,3,.09.44.44,0,0,0,.38-.31c0-.09.09-.47.18-1.13l.1-.09.66,0,.08.1c-.08.65-.17,1.66-.26,3-.09,1.21-.23,3.54-.43,7l-.09.1-1.07-.21-.87-.14-.9-.13-.1-.11,0-.56.1-.09a3.72,3.72,0,0,0,1.52-.06c.1-.06.19-.4.29-1s.16-1.17.19-1.64.06-1.14.05-1.71c-.67-.12-1.61-.22-2.81-.31l-2-.14c-.07.51-.12.93-.14,1.24l-.08,1.28a2.08,2.08,0,0,0,.08,1,3.17,3.17,0,0,0,1.3.3l.09.1,0,.6-.11.09c-.72-.08-1.39-.13-2-.18l-2.15-.11-.08-.1,0-.66.11-.09a3,3,0,0,0,1.33-.06c.15-.09.27-.4.35-.92s.11-.81.14-1.26,0-.92,0-1.33l-3-.21c-.85-.05-1.68-.1-2.48-.12l-.09,1.32a15.3,15.3,0,0,0,0,3.5.39.39,0,0,0,.09.17,2.17,2.17,0,0,0,.58.22l1.19.32.09.1,0,.6Z"/>
          <path class="cls-1" d="M153.35,115.12a4.63,4.63,0,0,1-2.42-1.75,4.83,4.83,0,0,1-.88-2.49,7.53,7.53,0,0,1,.41-2.85,9.5,9.5,0,0,1,2.13-3.53l.24,0a14.3,14.3,0,0,0,2.95,1.25l.07.12-.19.59-.13,0-.21-.06a10.49,10.49,0,0,0-1.41-.34,2.84,2.84,0,0,0-1.41.86,4.43,4.43,0,0,0-1.05,1.73,2.76,2.76,0,0,0,.46,3,3,3,0,0,0,1.24.81,1.87,1.87,0,0,0,2-.45,5.66,5.66,0,0,0,.93-1.44,8.71,8.71,0,0,1,2-3,3.28,3.28,0,0,1,3.08-.3,4.06,4.06,0,0,1,2.62,2.26,5.86,5.86,0,0,1,0,4.15,8,8,0,0,1-1.83,3.28h-.25a16.69,16.69,0,0,0-2.56-1.13l-.06-.13.19-.59.12-.06a10.82,10.82,0,0,0,1.48.38,2.35,2.35,0,0,0,1.07-.76,4.41,4.41,0,0,0,.83-1.48,3,3,0,0,0,0-2.18,2.17,2.17,0,0,0-1.39-1.2,1.82,1.82,0,0,0-1.82.26,7.64,7.64,0,0,0-1.38,2.16c-.06.13-.24.47-.54,1a5.62,5.62,0,0,1-.6.92,2.92,2.92,0,0,1-1.53,1.06,3.76,3.76,0,0,1-2.13-.13"/>
          <path class="cls-1" d="M143.14,125.51l0-.12c.34-.55.85-1.42,1.51-2.61s1.12-2.07,1.4-2.66l.13,0,.57.32,0,.14a9.33,9.33,0,0,0-.47,1,.44.44,0,0,0,.15.46,21.66,21.66,0,0,0,2.58,1.58l4.52,2.5a23.23,23.23,0,0,0,2.7,1.36.44.44,0,0,0,.48-.12,11.34,11.34,0,0,0,.64-1l.13,0,.58.32,0,.13c-.34.52-.84,1.39-1.51,2.6s-1.13,2.08-1.4,2.64l-.12,0-.58-.32,0-.13c.29-.6.44-.95.47-1a.43.43,0,0,0-.15-.46,20.75,20.75,0,0,0-2.59-1.58l-4.51-2.5a21.51,21.51,0,0,0-2.71-1.36.42.42,0,0,0-.47.12,11.34,11.34,0,0,0-.64,1l-.13,0Z"/>
          <g>
            <path class="cls-1" d="M66.63,166.22l-.11.12c-.91-.06-2-.09-3.33-.09s-2.63,0-4,.09l-.1-.11v-.59l.12-.1,1-.1a3.87,3.87,0,0,0,1.07-.17.65.65,0,0,0,.29-.36,18.75,18.75,0,0,0,.18-3.7v-2.43c0-.73,0-1.65,0-2.77l0-.73c0-.32-.07-.49-.2-.49a2.82,2.82,0,0,0-.58.23l-2.29,1.08-.12-.07a9.58,9.58,0,0,0-.2-1.24v-.07c1.79-.51,3.8-1.19,6-2l.21.14c0,.39-.06,1-.11,1.71,0,.28,0,1.06,0,2.3l0,3.83a31.12,31.12,0,0,0,.14,4.42.41.41,0,0,0,.3.27,10.67,10.67,0,0,0,1.82.18l.13.09Z"/>
            <path class="cls-1" d="M79.72,160.42a9,9,0,0,1-.93,4.28,7.78,7.78,0,0,1-2.58,2.84,6.63,6.63,0,0,1-3.64,1.08L71.8,168l.23-.39a2,2,0,0,0,.73.11,3.6,3.6,0,0,0,2.65-1.13,4.7,4.7,0,0,0,.86-1.21,10,10,0,0,0,.85-3.5,10.73,10.73,0,0,1-1.62,1.36,4.16,4.16,0,0,1-1.38.23,2.66,2.66,0,0,1-2.11-1,4.14,4.14,0,0,1-.88-2.8,4.74,4.74,0,0,1,2-4.21,4,4,0,0,1,2.33-.65,3.79,3.79,0,0,1,3.71,2.43,7.72,7.72,0,0,1,.55,3.14m-2.55-1a5.26,5.26,0,0,0-.52-2.67,1.6,1.6,0,0,0-1.44-.87,1.52,1.52,0,0,0-1.52,1.22,5,5,0,0,0-.21,1.54A4.1,4.1,0,0,0,74,161a1.67,1.67,0,0,0,1.43.76,1.52,1.52,0,0,0,1.54-1,4,4,0,0,0,.17-1.28"/>
            <path class="cls-1" d="M93.3,156.41q-2.26,4.13-3.69,7.34c-.85,1.93-1.53,3.58-2,4.94l-.16.1a9.3,9.3,0,0,0-1,0c-.34,0-.72,0-1.13,0l-.1-.21,4.2-7.25c.35-.58.61-1.06.81-1.43l.92-1.8-.07-.18H88.64l-1.75,0a4.78,4.78,0,0,0-1.07.09.52.52,0,0,0-.27.29,11.53,11.53,0,0,0-.3,1.85l-.1.1-.61,0-.1-.11c0-.72,0-1.41,0-2.07s0-1.6,0-2.51l.13-.1c1.55.07,3.06.1,4.54.1,1.94,0,3.29,0,4.08,0l.11.08Z"/>
            <path class="cls-1" d="M105.5,161.54a4.7,4.7,0,0,1-1.62,3.59,5.83,5.83,0,0,1-4.1,1.55,6.45,6.45,0,0,1-2.24-.46c0-.37-.25-1.28-.62-2.73l0-.14.47-.17.14.07a3.26,3.26,0,0,0,3.13,2.25,2.2,2.2,0,0,0,2.15-1.34,3.24,3.24,0,0,0,.28-1.4,2.89,2.89,0,0,0-.7-2.06,2.48,2.48,0,0,0-1.94-.76,3.78,3.78,0,0,0-2.23.82l-.38-.21c.08-1.25.13-2.28.13-3.08v-1.34q0-1.44-.15-3L98,153c1.57.08,2.89.11,4,.11.7,0,1.69,0,3-.11l.08.16c-.07.64-.11,1.1-.11,1.39s0,.39,0,.67l-.1.13q-1.2-.06-2.88-.06c-1.34,0-2.3,0-2.88.08L99,158.56a6.2,6.2,0,0,1,2.64-.67,3.89,3.89,0,0,1,2.83,1,3.52,3.52,0,0,1,1,2.66"/>
            <g>
              <path class="cls-1" d="M139.32,143.11a1.47,1.47,0,0,1-1.09.4,1.45,1.45,0,0,1-1.08-.5,1.43,1.43,0,0,1-.42-1.1,1.46,1.46,0,0,1,.48-1.06,1.5,1.5,0,0,1,1.09-.41,1.52,1.52,0,0,1,1.08.49,1.47,1.47,0,0,1,.41,1.11,1.49,1.49,0,0,1-.47,1.07"/>
              <path class="cls-1" d="M131.8,149.83a1.45,1.45,0,0,1-1.13.25,1.5,1.5,0,0,1-1-.65,1.48,1.48,0,0,1-.26-1.15,1.52,1.52,0,0,1,.62-1,1.54,1.54,0,0,1,1.14-.26,1.49,1.49,0,0,1,1,.65,1.44,1.44,0,0,1,.25,1.14,1.42,1.42,0,0,1-.62,1"/>
              <path class="cls-1" d="M122.94,155.86a1.42,1.42,0,0,1-1.16.07,1.5,1.5,0,0,1-.89-.79,1.56,1.56,0,0,1-.07-1.18,1.51,1.51,0,0,1,1.94-.94,1.54,1.54,0,0,1,.95,2,1.43,1.43,0,0,1-.77.88"/>
            </g>
            <g>
              <path class="cls-1" d="M27.84,143.11A1.54,1.54,0,0,0,30,143a1.47,1.47,0,0,0,.42-1.1,1.53,1.53,0,0,0-2.65-1,1.57,1.57,0,0,0,.06,2.18"/>
              <path class="cls-1" d="M35.36,149.83a1.45,1.45,0,0,0,1.13.25,1.54,1.54,0,0,0,.63-2.78A1.53,1.53,0,0,0,36,147a1.47,1.47,0,0,0-1,.65,1.44,1.44,0,0,0-.26,1.14,1.46,1.46,0,0,0,.63,1"/>
              <path class="cls-1" d="M44.22,155.86a1.42,1.42,0,0,0,1.16.07,1.46,1.46,0,0,0,.88-.79,1.47,1.47,0,0,0,.07-1.18,1.43,1.43,0,0,0-.76-.87A1.45,1.45,0,0,0,44.4,153a1.54,1.54,0,0,0-.95,2,1.4,1.4,0,0,0,.77.88"/>
            </g>
          </g>
          <path class="cls-1" d="M73.6.54a1.4,1.4,0,0,1,.31,1.05,1.36,1.36,0,0,1-.52,1,1.41,1.41,0,0,1-2-.22,1.43,1.43,0,0,1-.31-1A1.37,1.37,0,0,1,72.62,0a1.33,1.33,0,0,1,1,.53"/>
          <path class="cls-1" d="M164,51a1.39,1.39,0,0,1,.32,1.05,1.37,1.37,0,0,1-.53.95,1.42,1.42,0,0,1-2.3-1.26,1.37,1.37,0,0,1,.49-1,1.4,1.4,0,0,1,1-.3,1.34,1.34,0,0,1,1,.52"/>
          <path class="cls-1" d="M159.88,130a1.35,1.35,0,0,1,.31,1.05,1.31,1.31,0,0,1-.52.95,1.41,1.41,0,0,1-2-.21,1.37,1.37,0,0,1-.31-1.05,1.33,1.33,0,0,1,.5-1,1.3,1.3,0,0,1,1-.29,1.34,1.34,0,0,1,1,.52"/>
        </g>
        <g>
          <g>
            <polygon class="cls-2" points="86.91 84.66 86.91 53.3 49.5 53.3 49.5 90.71 80.85 90.71 80.85 122.07 118.26 122.07 118.26 84.66 86.91 84.66"/>
            <rect class="cls-2" x="91.67" y="53.3" width="26.59" height="26.59"/>
            <rect class="cls-2" x="49.5" y="95.48" width="26.59" height="26.59"/>
            <rect class="cls-3" x="63.97" y="67.89" width="16.82" height="16.82"/>
            <rect class="cls-3" x="86.91" y="90.71" width="16.82" height="16.82"/>
          </g>
          <path class="cls-2" d="M39,42.82v89.73h89.73V42.82Zm84.1,84.1H44.64V48.45h78.22Z"/>
        </g>
      </g>
    </g>
  </g>
</svg>
